<mxfile host="app.diagrams.net" modified="2023-12-27T02:48:04.851Z" agent="Mozilla/5.0 (Windows NT 10.0; Win64; x64) AppleWebKit/537.36 (KHTML, like Gecko) Chrome/120.0.0.0 Safari/537.36 Edg/120.0.0.0" version="22.1.12" etag="LC2oIMk9bWiws2lsDEgB" type="github">
  <diagram name="Page-1" id="H_zO-mNV3uOE_Epdelsh">
    <mxGraphModel>
      <root>
        <mxCell id="0" />
        <mxCell id="1" parent="0" />
      </root>
    </mxGraphModel>
  </diagram>
</mxfile>
